<svg xmlns="http://www.w3.org/2000/svg" xml:space="preserve" id="Layer_1" x="0" y="0" viewBox="0 0 3840 5828"><style>.st0{fill:#fff}</style><path id="Floor_1" d="m849.9 3735.5 1861.8-115.1v-5.9h-4.3l-7.2-68.7-1835 87.4-1.8 13.3-3.9 20.4 5.4.5-2.4 8.2h7.2l-7.9 36z" class="st0"/><path id="Floor_2" d="m865.2 3633.2 1835-87.4-.4-7.1 1.5-.2-.6-5.8h-2.2l.1-1.7 1.7-.3-.1-2.3h-2.4l.3-3.9h1.6s-.1-2.7-.2-2.7h-1.8l-.1-4.5h1.8l-.1-2-1.8.1.1-3.1h1.7l-.5-4.8h-2.3l-.1-5.4 1.4.3.2-3.1-2 .8-.4-10.9-1886.7 54.4-5.5 44.3 69.8.6-1.8 6.6-4.7 2.7-1.2 4.3-1.5.3-1.2 6.3-1.8 4.1-1 6.8 5.7-.7 15.4-1.3-.4 8z" class="st0"/><path id="Floor_3" d="m808.8 3543.6 1886.7-54.4-6-59.6-1902.8 22.3c22.2 17.9 34.2 39 30.2 65.4l5.8.1s-10.1 9.9-10 9.9 3.2.4 3.2.4l-5.4 6.3z" class="st0"/><path id="Floor_4" d="m786.7 3451.9 1902.8-22.3 1.3-.5v-1.6l-2.4.2.4-5.2h1.7l-.4-5.2-2.4-.5-.5-2.4 2.2-.6v-1.4l-1.7.2.1-4.7 1.1-.2v-2.1h-2v-4.1l1.9-1.1-.8-1.2h-1.2l.2-2.3 1.6-.3-.8-5.3h-1.4l-.5-4.5 1.5.2.3-1.9h-2.4l-.8-10.9L770 3362l-9.5 73c6.7 5.1 16.3 7.7 26.2 16.9" class="st0"/><path id="Floor_5" d="m769.8 3361.8 1914.5 12.2-4.1-43.7-1899.4-41.9z" class="st0"/><path id="Floor_6" d="m780.8 3288.5 1899.4 41.9-.9-12.8 1.6-.4-.6-4.9-2.4.2.2-3h2.4l-.7-5.3-2 .5.6-2.2h1.2l-.2-3.2-1.7.2-.9-8.5 1.3-.5-.2-4.5h-2.3l.9-7.2h-2.6l.3-2 1.9-1.7-.4-2.1-1883.6-69.9z" class="st0"/><path id="Floor_7" d="m792.2 3202.9 1883.6 69.9-6-53.2-1861.3-101.5-5.2 1.5-.7 8.1 3.9 8.8-6 41.1z" class="st0"/><path id="Floor_8" d="m808.5 3118.1 1861.2 101.5-5.2-57.4-1845-126.4-6 54.6-9-.9-.9 5.9 3.4 1.4 3.8 12.6z" class="st0"/><path id="Floor_9" d="m819.5 3035.8 1845.1 126.3-5-51.3-1831.3-160z" class="st0"/><path id="Floor_10" d="m828.3 2950.9 1831.3 160-4.5-52.6-1810.5-185.7-9.4 57.8z" class="st0"/><path id="Floor_11" d="m844.6 2872.6 1810.6 185.8-5.1-51.8-1795-211.7z" class="st0"/><path id="Floor_12" d="M855.1 2794.9 2650 3006.5l-4.2-49.6-1780.4-237.5-1.6 9.6-7.2-.9-1.4 6.7 2.3 2.4 1.6 19.6-5.4-1.8-1.1 7.6 3.6 22.3z" class="st0"/><path id="Floor_13" d="m865.4 2719.4 1780.4 237.5-4.8-51.4-1765.8-261.7z" class="st0"/><path id="Floor_14" d="M875.2 2643.8 2641 2905.5l-4.6-47.9-1754.5-285.7.7 12.9-5.2.1-.6 6.8 2.5 26z" class="st0"/><path id="Floor_15" d="m881.9 2571.9 1754.6 285.7-5.6-51.4-1735-306.2-6.9 59-8.3-.7z" class="st0"/><path id="Floor_16" d="m895.9 2500.1 1735 306.2-3-47.4-1727.4-330.8 1.9 30.7z" class="st0"/><path id="Floor_17" d="m900.5 2428.1 1727.4 330.7v-1.9l3-.4-4.2-61.4-34.1-8-28.1 11.4-1652.2-341.4-2.8 20.1 3.7-.1-1.7 20.6-7-.2.1 5.9.6 19.2-4.7-.4z" class="st0"/><path id="Floor_18" d="M2578.4 2660.4v32.2l-14 5.7-83.6-17.3-1568.5-323.9 9.5-65.4 1555.1 337.7 15.1 3.5 24.7 5.3 24 5.6 31.7 11.1z" class="st0"/><path id="Floor_19" d="m2553.2 2425.7-3 .3-1.1 2.7-1.6-.9v2.7l-81 45.2 7.1 106.4 3.3 47.3-1555-337.7 8.2-64.3 7.1-40.8 3.4.4.5-4.6-26.7-6.7-1.1-225.1s-2.3-.8-1.9-.8 0-3.4 0-3.4l67 1 .3-2.8 1502 444.5z" class="st0"/></svg>